<?xml version="1.0" encoding="UTF-8"?>
<svg xmlns="http://www.w3.org/2000/svg" xmlns:xlink="http://www.w3.org/1999/xlink" width="20px" height="20px" viewBox="0 0 20 20" version="1.1">
<g id="surface1">
<path style=" stroke:none;fill-rule:nonzero;fill:rgb(0%,0%,0%);fill-opacity:1;" d="M 16.566406 16.863281 C 16.625 16.71875 16.664062 16.550781 16.664062 16.367188 C 16.664062 16.035156 16.582031 15.742188 16.457031 15.492188 C 16.363281 15.308594 16.242188 15.144531 16.117188 15.003906 C 15.925781 14.789062 15.71875 14.613281 15.53125 14.449219 C 15.347656 14.289062 15.179688 14.136719 15.070312 13.992188 L 15.070312 13.988281 L 15.066406 13.988281 C 14.65625 13.472656 14.320312 12.734375 14.066406 11.890625 C 13.679688 10.628906 13.464844 9.144531 13.351562 7.847656 C 13.238281 6.554688 13.222656 5.449219 13.222656 4.933594 C 13.222656 4.886719 13.222656 4.84375 13.222656 4.808594 L 15.027344 3.675781 L 15.027344 0 L 12.203125 0 L 12.203125 1.714844 L 11.347656 1.714844 L 11.347656 0 L 8.648438 0 L 8.648438 1.714844 L 7.796875 1.714844 L 7.796875 0 L 4.972656 0 L 4.972656 3.675781 L 6.777344 4.804688 C 6.777344 4.84375 6.777344 4.886719 6.777344 4.933594 C 6.777344 5.617188 6.75 7.355469 6.5 9.191406 C 6.371094 10.109375 6.191406 11.050781 5.933594 11.890625 C 5.679688 12.734375 5.34375 13.472656 4.933594 13.988281 L 4.929688 13.988281 L 4.929688 13.992188 C 4.828125 14.121094 4.691406 14.253906 4.527344 14.394531 C 4.289062 14.609375 4 14.839844 3.757812 15.152344 C 3.640625 15.308594 3.53125 15.484375 3.457031 15.6875 C 3.378906 15.890625 3.335938 16.121094 3.335938 16.367188 C 3.335938 16.613281 3.402344 16.828125 3.503906 16.996094 C 3.578125 17.125 3.671875 17.226562 3.769531 17.304688 C 3.828125 17.355469 3.890625 17.394531 3.949219 17.429688 L 3.476562 18.21875 L 3.476562 20 L 16.523438 20 L 16.523438 18.21875 L 16.050781 17.429688 C 16.140625 17.375 16.234375 17.308594 16.324219 17.21875 C 16.417969 17.125 16.503906 17.003906 16.566406 16.863281 Z M 5.640625 3.304688 L 5.640625 0.667969 L 7.128906 0.667969 L 7.128906 2.382812 L 9.320312 2.382812 L 9.320312 0.667969 L 10.679688 0.667969 L 10.679688 2.382812 L 12.871094 2.382812 L 12.871094 0.667969 L 14.359375 0.667969 L 14.359375 3.304688 L 12.730469 4.324219 L 7.269531 4.324219 Z M 15.851562 19.332031 L 4.148438 19.332031 L 4.148438 18.402344 L 4.636719 17.578125 L 15.363281 17.578125 L 15.851562 18.402344 Z M 15.921875 16.652344 C 15.890625 16.707031 15.851562 16.75 15.804688 16.789062 C 15.738281 16.84375 15.65625 16.886719 15.59375 16.910156 C 15.582031 16.914062 15.574219 16.917969 15.566406 16.917969 L 15.566406 16.910156 L 4.445312 16.910156 L 4.445312 16.921875 C 4.429688 16.917969 4.414062 16.914062 4.398438 16.90625 C 4.316406 16.875 4.210938 16.8125 4.136719 16.730469 C 4.097656 16.691406 4.066406 16.644531 4.042969 16.585938 C 4.023438 16.53125 4.007812 16.460938 4.007812 16.367188 C 4.007812 16.140625 4.058594 15.960938 4.140625 15.796875 C 4.203125 15.675781 4.285156 15.558594 4.382812 15.449219 C 4.53125 15.28125 4.71875 15.121094 4.90625 14.953125 C 5.097656 14.789062 5.292969 14.617188 5.457031 14.40625 C 5.457031 14.40625 5.457031 14.402344 5.457031 14.402344 C 5.457031 14.402344 5.460938 14.402344 5.460938 14.398438 C 5.949219 13.78125 6.304688 12.976562 6.574219 12.085938 C 6.984375 10.75 7.199219 9.230469 7.316406 7.90625 C 7.425781 6.632812 7.445312 5.542969 7.449219 4.992188 L 12.550781 4.992188 C 12.554688 5.734375 12.585938 7.449219 12.835938 9.28125 C 12.964844 10.222656 13.152344 11.199219 13.425781 12.085938 C 13.695312 12.976562 14.050781 13.78125 14.539062 14.398438 C 14.539062 14.402344 14.542969 14.402344 14.542969 14.402344 C 14.542969 14.402344 14.542969 14.40625 14.542969 14.40625 C 14.691406 14.59375 14.859375 14.75 15.027344 14.898438 C 15.285156 15.121094 15.535156 15.332031 15.710938 15.558594 C 15.796875 15.675781 15.867188 15.792969 15.914062 15.921875 C 15.964844 16.054688 15.992188 16.195312 15.992188 16.367188 C 15.992188 16.5 15.960938 16.582031 15.921875 16.652344 Z M 15.921875 16.652344 "/>
</g>
</svg>
