<?xml version="1.0" encoding="UTF-8"?>
<svg xmlns="http://www.w3.org/2000/svg" xmlns:xlink="http://www.w3.org/1999/xlink" width="20px" height="20px" viewBox="0 0 20 20" version="1.1">
<defs>
<filter id="alpha" filterUnits="objectBoundingBox" x="0%" y="0%" width="100%" height="100%">
  <feColorMatrix type="matrix" in="SourceGraphic" values="0 0 0 0 1 0 0 0 0 1 0 0 0 0 1 0 0 0 1 0"/>
</filter>
<mask id="mask0">
  <g filter="url(#alpha)">
<rect x="0" y="0" width="20" height="20" style="fill:rgb(0%,0%,0%);fill-opacity:0.101961;stroke:none;"/>
  </g>
</mask>
<clipPath id="clip1">
  <rect x="0" y="0" width="20" height="20"/>
</clipPath>
<g id="surface5" clip-path="url(#clip1)">
<path style=" stroke:none;fill-rule:nonzero;fill:rgb(1.568628%,0%,0%);fill-opacity:1;" d="M 7.691406 7.253906 L 2.375 7.253906 C 2.394531 7.144531 2.410156 7.03125 2.421875 6.910156 C 2.417969 6.910156 2.414062 6.90625 2.410156 6.898438 C 2.414062 6.898438 2.414062 6.898438 2.417969 6.898438 L 7.648438 6.898438 C 7.652344 6.898438 7.652344 6.898438 7.65625 6.898438 C 7.652344 6.90625 7.648438 6.910156 7.644531 6.910156 C 7.65625 7.03125 7.671875 7.144531 7.691406 7.253906 Z M 7.691406 7.253906 "/>
</g>
<mask id="mask1">
  <g filter="url(#alpha)">
<rect x="0" y="0" width="20" height="20" style="fill:rgb(0%,0%,0%);fill-opacity:0.101961;stroke:none;"/>
  </g>
</mask>
<clipPath id="clip2">
  <rect x="0" y="0" width="20" height="20"/>
</clipPath>
<g id="surface8" clip-path="url(#clip2)">
<path style=" stroke:none;fill-rule:nonzero;fill:rgb(1.568628%,0%,0%);fill-opacity:1;" d="M 8.09375 9.136719 L 1.980469 9.136719 C 1.976562 9.136719 1.972656 9.136719 1.972656 9.136719 C 2.011719 8.890625 2.042969 8.703125 2.058594 8.605469 C 2.144531 8.710938 2.269531 8.785156 2.417969 8.785156 L 7.648438 8.785156 C 7.796875 8.785156 7.921875 8.710938 8.007812 8.605469 C 8.023438 8.703125 8.054688 8.890625 8.09375 9.136719 Z M 8.09375 9.136719 "/>
</g>
<mask id="mask2">
  <g filter="url(#alpha)">
<rect x="0" y="0" width="20" height="20" style="fill:rgb(0%,0%,0%);fill-opacity:0.101961;stroke:none;"/>
  </g>
</mask>
<clipPath id="clip3">
  <rect x="0" y="0" width="20" height="20"/>
</clipPath>
<g id="surface11" clip-path="url(#clip3)">
<path style=" stroke:none;fill-rule:nonzero;fill:rgb(1.568628%,0%,0%);fill-opacity:1;" d="M 9.460938 15.429688 C 9.347656 15.488281 9.21875 15.527344 9.078125 15.527344 L 0.964844 15.527344 C 0.835938 15.527344 0.714844 15.492188 0.605469 15.433594 L 0.644531 14.996094 L 0.644531 14.992188 L 0.65625 14.875 C 0.679688 14.910156 0.699219 14.9375 0.722656 14.964844 C 0.796875 15.046875 0.882812 15.09375 0.980469 15.09375 L 1.226562 15.09375 L 1.246094 14.875 C 1.265625 14.910156 1.292969 14.9375 1.316406 14.964844 C 1.390625 15.046875 1.476562 15.09375 1.570312 15.09375 L 1.707031 15.09375 L 1.730469 14.875 C 1.75 14.910156 1.773438 14.9375 1.796875 14.964844 C 1.871094 15.046875 1.957031 15.09375 2.050781 15.09375 L 2.300781 15.09375 L 2.320312 14.875 C 2.34375 14.910156 2.363281 14.9375 2.390625 14.964844 C 2.460938 15.046875 2.550781 15.09375 2.644531 15.09375 L 7.421875 15.09375 C 7.515625 15.09375 7.605469 15.046875 7.675781 14.964844 C 7.703125 14.9375 7.722656 14.910156 7.746094 14.875 L 7.765625 15.09375 L 8.015625 15.09375 C 8.109375 15.09375 8.195312 15.046875 8.269531 14.964844 C 8.292969 14.9375 8.316406 14.910156 8.335938 14.875 L 8.359375 15.09375 L 8.5 15.09375 C 8.589844 15.09375 8.675781 15.046875 8.75 14.964844 C 8.773438 14.9375 8.800781 14.910156 8.820312 14.875 L 8.839844 15.09375 L 9.085938 15.09375 C 9.183594 15.09375 9.269531 15.046875 9.34375 14.964844 C 9.367188 14.9375 9.390625 14.910156 9.410156 14.875 L 9.421875 14.992188 L 9.421875 14.996094 Z M 9.460938 15.429688 "/>
</g>
<mask id="mask3">
  <g filter="url(#alpha)">
<rect x="0" y="0" width="20" height="20" style="fill:rgb(0%,0%,0%);fill-opacity:0.101961;stroke:none;"/>
  </g>
</mask>
<clipPath id="clip4">
  <rect x="0" y="0" width="20" height="20"/>
</clipPath>
<g id="surface14" clip-path="url(#clip4)">
<path style=" stroke:none;fill-rule:nonzero;fill:rgb(1.568628%,0%,0%);fill-opacity:1;" d="M 4.984375 1.355469 C 4.996094 1.355469 5.003906 1.355469 5.011719 1.351562 C 5.003906 1.351562 4.996094 1.347656 4.984375 1.347656 Z M 4.984375 1.355469 "/>
<path style=" stroke:none;fill-rule:nonzero;fill:rgb(1.568628%,0%,0%);fill-opacity:1;" d="M 5.03125 6.351562 L 5.03125 6.988281 L 4.984375 6.988281 L 4.984375 7.875 L 7.648438 7.875 C 7.703125 7.875 7.757812 7.886719 7.808594 7.90625 C 7.769531 7.730469 7.726562 7.507812 7.691406 7.253906 C 7.671875 7.144531 7.65625 7.03125 7.644531 6.910156 C 7.648438 6.910156 7.652344 6.90625 7.65625 6.898438 C 7.722656 6.839844 7.765625 6.761719 7.765625 6.671875 C 7.765625 6.554688 7.699219 6.457031 7.609375 6.402344 C 7.59375 6.394531 7.574219 6.386719 7.558594 6.378906 C 7.574219 6.386719 7.59375 6.394531 7.605469 6.402344 C 7.605469 6.355469 7.605469 6.304688 7.605469 6.257812 C 7.605469 4.542969 8.792969 3.972656 9.03125 3.253906 L 8.214844 3.253906 L 7.601562 2.640625 L 6.90625 3.335938 L 7.351562 2.882812 C 7.144531 1.984375 6.433594 1.277344 5.535156 1.070312 C 5.539062 1.070312 5.539062 1.066406 5.539062 1.066406 C 5.617188 0.957031 5.664062 0.824219 5.664062 0.679688 C 5.664062 0.335938 5.410156 0.0546875 5.082031 0.0078125 L 5.082031 0 C 5.066406 0 5.050781 0.00390625 5.03125 0.00390625 L 5.03125 1.351562 C 5.027344 1.351562 5.019531 1.351562 5.011719 1.351562 C 5.019531 1.351562 5.027344 1.355469 5.03125 1.355469 L 5.03125 2.703125 L 4.984375 2.640625 L 4.984375 2.769531 L 4.675781 3.183594 L 5.03125 2.710938 Z M 5.03125 6.351562 "/>
<path style=" stroke:none;fill-rule:nonzero;fill:rgb(1.568628%,0%,0%);fill-opacity:1;" d="M 9.964844 18.664062 C 9.964844 18.578125 9.949219 18.496094 9.921875 18.425781 C 9.878906 18.3125 9.804688 18.222656 9.714844 18.183594 L 9.460938 15.425781 L 9.421875 14.992188 C 9.53125 14.863281 9.601562 14.699219 9.601562 14.515625 C 9.601562 14.195312 9.398438 13.925781 9.113281 13.824219 C 9.085938 13.8125 9.054688 13.804688 9.023438 13.796875 C 8.726562 12.851562 8.289062 10.3125 8.09375 9.136719 C 8.054688 8.890625 8.023438 8.703125 8.007812 8.605469 C 8.066406 8.527344 8.105469 8.433594 8.105469 8.328125 C 8.105469 8.136719 7.980469 7.96875 7.808594 7.90625 C 7.757812 7.886719 7.707031 7.875 7.648438 7.875 L 5.03125 7.875 L 5.03125 20 L 9.707031 20 C 9.90625 20 10.066406 19.773438 10.066406 19.496094 Z M 9.964844 18.664062 "/>
</g>
</defs>
<g id="surface1">
<path style=" stroke:none;fill-rule:nonzero;fill:rgb(100%,100%,100%);fill-opacity:1;" d="M 9.964844 18.664062 C 9.964844 18.578125 9.949219 18.496094 9.921875 18.425781 C 9.917969 18.40625 9.910156 18.390625 9.902344 18.375 C 9.894531 18.363281 9.890625 18.355469 9.882812 18.34375 C 9.875 18.328125 9.863281 18.3125 9.851562 18.296875 C 9.84375 18.292969 9.839844 18.28125 9.832031 18.277344 C 9.820312 18.257812 9.808594 18.246094 9.792969 18.234375 C 9.785156 18.226562 9.78125 18.222656 9.773438 18.21875 C 9.753906 18.203125 9.734375 18.191406 9.714844 18.183594 L 9.460938 15.429688 L 9.421875 14.996094 L 9.421875 14.992188 C 9.445312 14.964844 9.46875 14.9375 9.484375 14.90625 C 9.488281 14.898438 9.492188 14.894531 9.496094 14.886719 C 9.496094 14.882812 9.496094 14.882812 9.5 14.882812 C 9.511719 14.867188 9.519531 14.851562 9.523438 14.832031 C 9.527344 14.832031 9.527344 14.828125 9.527344 14.828125 C 9.539062 14.8125 9.542969 14.796875 9.550781 14.78125 C 9.550781 14.777344 9.550781 14.773438 9.550781 14.773438 C 9.5625 14.753906 9.566406 14.730469 9.574219 14.710938 C 9.578125 14.703125 9.578125 14.695312 9.578125 14.6875 C 9.582031 14.679688 9.582031 14.675781 9.585938 14.664062 C 9.585938 14.660156 9.589844 14.652344 9.589844 14.648438 C 9.597656 14.605469 9.601562 14.558594 9.601562 14.511719 C 9.601562 14.195312 9.398438 13.925781 9.113281 13.824219 C 9.101562 13.816406 9.085938 13.8125 9.070312 13.808594 C 9.054688 13.804688 9.039062 13.800781 9.023438 13.796875 L 9.023438 13.792969 C 9.011719 13.757812 9 13.71875 8.988281 13.675781 C 8.980469 13.652344 8.976562 13.628906 8.964844 13.605469 C 8.964844 13.601562 8.964844 13.59375 8.964844 13.59375 C 8.945312 13.523438 8.925781 13.449219 8.90625 13.371094 C 8.894531 13.335938 8.886719 13.292969 8.875 13.25 C 8.859375 13.1875 8.84375 13.121094 8.828125 13.050781 C 8.8125 12.980469 8.796875 12.910156 8.78125 12.835938 C 8.769531 12.785156 8.757812 12.734375 8.746094 12.6875 C 8.730469 12.59375 8.707031 12.5 8.691406 12.402344 C 8.613281 12.046875 8.539062 11.664062 8.46875 11.285156 C 8.464844 11.261719 8.460938 11.238281 8.457031 11.214844 C 8.445312 11.15625 8.4375 11.101562 8.425781 11.046875 C 8.414062 10.988281 8.402344 10.929688 8.394531 10.871094 C 8.386719 10.816406 8.375 10.761719 8.363281 10.710938 C 8.355469 10.65625 8.347656 10.601562 8.335938 10.546875 L 8.332031 10.546875 C 8.328125 10.503906 8.320312 10.460938 8.3125 10.421875 C 8.289062 10.285156 8.265625 10.152344 8.242188 10.019531 C 8.234375 9.964844 8.222656 9.910156 8.214844 9.851562 C 8.207031 9.800781 8.195312 9.746094 8.1875 9.695312 C 8.183594 9.683594 8.183594 9.667969 8.183594 9.652344 C 8.171875 9.59375 8.164062 9.539062 8.15625 9.488281 C 8.148438 9.460938 8.144531 9.433594 8.140625 9.410156 C 8.140625 9.402344 8.136719 9.398438 8.136719 9.390625 C 8.121094 9.300781 8.105469 9.214844 8.09375 9.136719 C 8.054688 8.890625 8.023438 8.703125 8.007812 8.605469 C 8.066406 8.527344 8.101562 8.429688 8.101562 8.328125 C 8.101562 8.136719 7.980469 7.96875 7.808594 7.90625 C 7.769531 7.734375 7.726562 7.507812 7.691406 7.253906 C 7.671875 7.144531 7.65625 7.03125 7.644531 6.910156 C 7.648438 6.910156 7.652344 6.90625 7.65625 6.898438 C 7.722656 6.84375 7.765625 6.761719 7.765625 6.671875 C 7.765625 6.554688 7.699219 6.460938 7.609375 6.40625 C 7.601562 6.402344 7.59375 6.394531 7.585938 6.390625 C 7.59375 6.394531 7.601562 6.398438 7.609375 6.402344 C 7.605469 6.351562 7.605469 6.304688 7.605469 6.253906 C 7.605469 4.953125 8.292969 4.308594 8.726562 3.761719 C 8.863281 3.589844 8.972656 3.425781 9.03125 3.253906 L 8.214844 3.253906 L 7.601562 2.640625 L 6.9375 3.304688 L 7.351562 2.886719 C 7.339844 2.832031 7.324219 2.773438 7.304688 2.71875 C 7.292969 2.664062 7.273438 2.609375 7.25 2.558594 C 7.238281 2.523438 7.226562 2.492188 7.210938 2.460938 C 7.210938 2.457031 7.207031 2.449219 7.199219 2.445312 C 7.191406 2.421875 7.175781 2.394531 7.164062 2.371094 C 7.15625 2.351562 7.144531 2.332031 7.136719 2.308594 C 7.105469 2.246094 7.074219 2.1875 7.03125 2.132812 C 7.007812 2.089844 6.980469 2.050781 6.953125 2.015625 C 6.933594 1.980469 6.90625 1.945312 6.878906 1.914062 C 6.875 1.90625 6.871094 1.902344 6.867188 1.898438 C 6.816406 1.839844 6.765625 1.78125 6.710938 1.726562 C 6.707031 1.722656 6.703125 1.714844 6.699219 1.710938 C 6.636719 1.652344 6.578125 1.597656 6.511719 1.542969 C 6.492188 1.53125 6.472656 1.515625 6.453125 1.5 C 6.390625 1.453125 6.332031 1.410156 6.269531 1.375 C 6.238281 1.351562 6.203125 1.335938 6.171875 1.316406 C 6.171875 1.3125 6.171875 1.3125 6.167969 1.3125 C 6.085938 1.269531 6.007812 1.230469 5.925781 1.199219 C 5.90625 1.1875 5.882812 1.179688 5.863281 1.171875 C 5.828125 1.15625 5.785156 1.144531 5.75 1.132812 C 5.734375 1.125 5.71875 1.117188 5.703125 1.117188 C 5.675781 1.105469 5.648438 1.101562 5.621094 1.09375 C 5.59375 1.085938 5.566406 1.078125 5.539062 1.070312 C 5.539062 1.066406 5.539062 1.066406 5.539062 1.0625 C 5.613281 0.960938 5.660156 0.832031 5.664062 0.695312 L 5.664062 0.679688 C 5.664062 0.335938 5.410156 0.0546875 5.082031 0.0078125 L 5.082031 0 C 5.0625 0 5.046875 0.00390625 5.03125 0.00390625 C 5.019531 0.00390625 5.003906 0 4.984375 0 L 4.984375 0.0078125 C 4.980469 0.0078125 4.980469 0.0078125 4.976562 0.0117188 C 4.652344 0.0585938 4.402344 0.335938 4.402344 0.679688 C 4.402344 0.820312 4.449219 0.953125 4.527344 1.0625 C 4.527344 1.066406 4.527344 1.066406 4.53125 1.070312 C 4.515625 1.074219 4.503906 1.078125 4.488281 1.082031 C 4.445312 1.089844 4.40625 1.105469 4.363281 1.117188 C 4.089844 1.199219 3.835938 1.332031 3.613281 1.5 C 3.527344 1.566406 3.445312 1.636719 3.367188 1.710938 C 3.25 1.832031 3.140625 1.964844 3.046875 2.105469 C 2.925781 2.292969 2.828125 2.5 2.761719 2.71875 C 2.742188 2.773438 2.726562 2.832031 2.714844 2.886719 L 3.128906 3.304688 L 2.464844 2.640625 L 1.851562 3.253906 L 1.035156 3.253906 C 1.273438 3.972656 2.460938 4.542969 2.460938 6.253906 C 2.460938 6.304688 2.460938 6.351562 2.457031 6.402344 C 2.464844 6.398438 2.472656 6.390625 2.480469 6.390625 C 2.472656 6.394531 2.464844 6.402344 2.457031 6.40625 C 2.367188 6.460938 2.300781 6.554688 2.300781 6.671875 C 2.300781 6.761719 2.34375 6.84375 2.410156 6.898438 C 2.414062 6.90625 2.417969 6.910156 2.421875 6.910156 C 2.410156 7.03125 2.394531 7.144531 2.375 7.253906 C 2.339844 7.507812 2.292969 7.734375 2.257812 7.90625 C 2.085938 7.96875 1.964844 8.136719 1.964844 8.328125 C 1.964844 8.433594 2 8.527344 2.058594 8.605469 C 2.042969 8.703125 2.011719 8.890625 1.972656 9.136719 C 1.941406 9.320312 1.90625 9.535156 1.867188 9.773438 C 1.855469 9.855469 1.839844 9.9375 1.824219 10.019531 C 1.800781 10.148438 1.777344 10.28125 1.753906 10.417969 C 1.738281 10.507812 1.722656 10.601562 1.703125 10.695312 C 1.636719 11.074219 1.566406 11.464844 1.488281 11.84375 C 1.464844 11.96875 1.441406 12.089844 1.417969 12.210938 C 1.402344 12.277344 1.390625 12.34375 1.375 12.40625 C 1.359375 12.5 1.335938 12.59375 1.320312 12.6875 C 1.253906 13 1.183594 13.28125 1.125 13.511719 C 1.09375 13.617188 1.070312 13.710938 1.042969 13.792969 L 1.042969 13.796875 C 1.027344 13.800781 1.011719 13.804688 0.996094 13.808594 C 0.980469 13.8125 0.964844 13.816406 0.953125 13.824219 C 0.667969 13.925781 0.464844 14.199219 0.464844 14.511719 C 0.464844 14.582031 0.472656 14.648438 0.492188 14.710938 C 0.5 14.730469 0.503906 14.753906 0.515625 14.773438 C 0.542969 14.855469 0.589844 14.925781 0.644531 14.992188 L 0.644531 14.996094 L 0.605469 15.433594 L 0.351562 18.183594 C 0.328125 18.191406 0.308594 18.207031 0.289062 18.222656 C 0.28125 18.222656 0.277344 18.226562 0.273438 18.234375 C 0.257812 18.246094 0.242188 18.261719 0.230469 18.277344 C 0.210938 18.296875 0.199219 18.320312 0.183594 18.34375 C 0.167969 18.371094 0.15625 18.398438 0.144531 18.425781 C 0.117188 18.496094 0.101562 18.578125 0.101562 18.664062 L 0.0078125 19.421875 L 0 19.496094 C 0 19.773438 0.160156 20 0.359375 20 L 9.707031 20 C 9.90625 20 10.066406 19.773438 10.066406 19.496094 Z M 4.984375 1.34375 L 4.984375 1.347656 C 4.972656 1.34375 4.960938 1.34375 4.949219 1.335938 C 4.960938 1.339844 4.972656 1.339844 4.984375 1.34375 Z M 4.917969 1.332031 L 4.914062 1.332031 C 4.90625 1.328125 4.894531 1.324219 4.886719 1.324219 C 4.894531 1.328125 4.910156 1.328125 4.917969 1.332031 Z M 4.664062 3.203125 L 3.964844 4.140625 L 3.957031 4.132812 Z M 4.664062 3.203125 "/>
<path style=" stroke:none;fill-rule:nonzero;fill:rgb(94.509804%,94.509804%,94.509804%);fill-opacity:1;" d="M 5.082031 6.988281 L 5.082031 7.875 L 2.417969 7.875 C 2.363281 7.875 2.308594 7.886719 2.257812 7.90625 C 2.292969 7.734375 2.339844 7.507812 2.375 7.253906 C 2.394531 7.144531 2.410156 7.03125 2.421875 6.910156 C 2.476562 6.957031 2.542969 6.988281 2.617188 6.988281 Z M 5.082031 6.988281 "/>
<path style=" stroke:none;fill-rule:nonzero;fill:rgb(100%,100%,100%);fill-opacity:1;" d="M 7.351562 2.886719 L 6.9375 3.304688 L 6.90625 3.335938 L 6.113281 4.140625 L 6.109375 4.132812 L 5.375 3.160156 L 5.03125 2.710938 L 4.703125 3.144531 L 4.675781 3.1875 L 4.664062 3.203125 L 3.957031 4.132812 L 3.949219 4.140625 L 3.160156 3.335938 L 3.128906 3.304688 L 2.714844 2.886719 C 2.726562 2.832031 2.742188 2.773438 2.757812 2.71875 C 2.828125 2.5 2.921875 2.296875 3.046875 2.105469 C 3.140625 1.964844 3.25 1.832031 3.367188 1.710938 C 3.445312 1.636719 3.527344 1.566406 3.613281 1.5 C 3.835938 1.332031 4.089844 1.199219 4.363281 1.117188 C 4.40625 1.105469 4.445312 1.089844 4.488281 1.082031 C 4.503906 1.078125 4.515625 1.074219 4.53125 1.070312 L 4.535156 1.070312 C 4.558594 1.105469 4.585938 1.136719 4.617188 1.167969 C 4.621094 1.171875 4.625 1.175781 4.632812 1.179688 C 4.648438 1.199219 4.667969 1.214844 4.6875 1.226562 C 4.699219 1.234375 4.710938 1.242188 4.722656 1.25 C 4.761719 1.277344 4.808594 1.296875 4.855469 1.3125 C 4.871094 1.324219 4.894531 1.328125 4.914062 1.332031 C 4.9375 1.339844 4.960938 1.347656 4.984375 1.347656 C 4.992188 1.351562 5 1.351562 5.007812 1.351562 C 5.007812 1.351562 5.011719 1.351562 5.015625 1.351562 C 5.019531 1.351562 5.027344 1.355469 5.03125 1.355469 C 5.039062 1.355469 5.046875 1.355469 5.054688 1.351562 C 5.054688 1.351562 5.054688 1.351562 5.058594 1.351562 C 5.066406 1.351562 5.074219 1.351562 5.082031 1.347656 C 5.105469 1.347656 5.128906 1.339844 5.152344 1.332031 C 5.222656 1.316406 5.285156 1.289062 5.34375 1.25 C 5.355469 1.242188 5.367188 1.234375 5.378906 1.226562 C 5.398438 1.214844 5.417969 1.199219 5.433594 1.179688 C 5.441406 1.175781 5.445312 1.171875 5.449219 1.167969 C 5.480469 1.136719 5.507812 1.105469 5.53125 1.070312 L 5.539062 1.070312 C 5.566406 1.078125 5.59375 1.085938 5.621094 1.09375 C 5.648438 1.101562 5.675781 1.105469 5.703125 1.117188 C 5.71875 1.117188 5.734375 1.125 5.75 1.132812 C 5.785156 1.144531 5.828125 1.15625 5.863281 1.171875 C 5.882812 1.179688 5.90625 1.1875 5.925781 1.199219 C 6.007812 1.230469 6.085938 1.269531 6.167969 1.3125 L 6.167969 1.316406 C 6.203125 1.335938 6.238281 1.351562 6.269531 1.375 C 6.332031 1.410156 6.390625 1.453125 6.453125 1.5 C 6.480469 1.519531 6.503906 1.539062 6.527344 1.5625 C 6.585938 1.609375 6.644531 1.660156 6.699219 1.710938 C 6.703125 1.714844 6.707031 1.722656 6.710938 1.726562 C 6.765625 1.78125 6.816406 1.839844 6.867188 1.898438 C 6.871094 1.902344 6.875 1.90625 6.878906 1.914062 C 6.90625 1.945312 6.933594 1.980469 6.953125 2.015625 C 6.976562 2.046875 7 2.078125 7.019531 2.105469 C 7.023438 2.117188 7.03125 2.125 7.03125 2.132812 C 7.074219 2.1875 7.105469 2.246094 7.136719 2.308594 C 7.160156 2.351562 7.183594 2.398438 7.199219 2.445312 C 7.207031 2.449219 7.210938 2.457031 7.210938 2.460938 C 7.246094 2.542969 7.277344 2.628906 7.304688 2.71875 C 7.324219 2.773438 7.339844 2.832031 7.351562 2.886719 Z M 7.351562 2.886719 "/>
<path style=" stroke:none;fill-rule:nonzero;fill:rgb(94.509804%,94.509804%,94.509804%);fill-opacity:1;" d="M 7.808594 7.90625 C 7.757812 7.886719 7.703125 7.875 7.648438 7.875 L 4.984375 7.875 L 4.984375 6.988281 L 7.445312 6.988281 C 7.523438 6.988281 7.589844 6.957031 7.644531 6.910156 C 7.65625 7.03125 7.671875 7.144531 7.691406 7.253906 C 7.726562 7.507812 7.769531 7.730469 7.808594 7.90625 Z M 7.808594 7.90625 "/>
<path style=" stroke:none;fill-rule:nonzero;fill:rgb(94.509804%,94.509804%,94.509804%);fill-opacity:1;" d="M 8.726562 3.761719 C 8.292969 4.308594 7.605469 4.953125 7.605469 6.253906 C 7.605469 6.304688 7.605469 6.351562 7.609375 6.402344 C 7.601562 6.398438 7.59375 6.394531 7.585938 6.390625 C 7.578125 6.386719 7.566406 6.382812 7.558594 6.378906 C 7.527344 6.363281 7.484375 6.351562 7.445312 6.351562 L 2.617188 6.351562 C 2.566406 6.351562 2.523438 6.367188 2.480469 6.390625 C 2.472656 6.390625 2.464844 6.398438 2.457031 6.402344 C 2.460938 6.351562 2.460938 6.304688 2.460938 6.253906 C 2.460938 4.542969 1.273438 3.972656 1.035156 3.253906 L 1.851562 3.253906 L 2.464844 2.640625 L 3.964844 4.140625 L 4.664062 3.203125 L 4.675781 3.1875 L 4.703125 3.144531 L 4.984375 2.769531 L 4.984375 2.640625 L 5.03125 2.707031 L 5.082031 2.640625 L 5.082031 2.769531 L 5.375 3.160156 L 6.101562 4.140625 L 7.601562 2.640625 L 8.214844 3.253906 L 9.03125 3.253906 C 8.972656 3.425781 8.863281 3.589844 8.726562 3.761719 Z M 8.726562 3.761719 "/>
<path style=" stroke:none;fill-rule:nonzero;fill:rgb(94.509804%,94.509804%,94.509804%);fill-opacity:1;" d="M 5.664062 0.679688 L 5.664062 0.695312 C 5.660156 0.832031 5.613281 0.960938 5.539062 1.0625 C 5.539062 1.066406 5.539062 1.066406 5.539062 1.070312 L 5.535156 1.070312 C 5.511719 1.105469 5.484375 1.140625 5.449219 1.167969 C 5.445312 1.171875 5.441406 1.175781 5.433594 1.179688 C 5.417969 1.199219 5.398438 1.214844 5.378906 1.226562 C 5.367188 1.234375 5.355469 1.242188 5.34375 1.25 C 5.28125 1.285156 5.21875 1.3125 5.152344 1.332031 C 5.128906 1.335938 5.105469 1.339844 5.082031 1.34375 L 5.082031 1.355469 C 5.074219 1.355469 5.0625 1.351562 5.058594 1.351562 C 5.054688 1.351562 5.054688 1.351562 5.054688 1.351562 C 5.046875 1.351562 5.039062 1.351562 5.03125 1.351562 C 5.027344 1.351562 5.019531 1.351562 5.015625 1.351562 C 5.011719 1.351562 5.007812 1.351562 5.007812 1.351562 C 5 1.351562 4.992188 1.355469 4.984375 1.355469 L 4.984375 1.34375 C 4.972656 1.339844 4.960938 1.339844 4.949219 1.335938 C 4.9375 1.335938 4.925781 1.335938 4.917969 1.332031 L 4.914062 1.332031 C 4.90625 1.328125 4.894531 1.324219 4.886719 1.324219 C 4.875 1.320312 4.867188 1.316406 4.855469 1.3125 C 4.832031 1.304688 4.8125 1.296875 4.792969 1.285156 C 4.773438 1.277344 4.753906 1.269531 4.734375 1.253906 C 4.730469 1.253906 4.730469 1.253906 4.722656 1.25 C 4.710938 1.242188 4.699219 1.234375 4.6875 1.226562 C 4.667969 1.214844 4.648438 1.199219 4.632812 1.179688 C 4.625 1.175781 4.621094 1.171875 4.617188 1.167969 C 4.582031 1.140625 4.554688 1.105469 4.53125 1.070312 C 4.527344 1.066406 4.527344 1.066406 4.527344 1.0625 C 4.449219 0.953125 4.402344 0.820312 4.402344 0.679688 C 4.402344 0.335938 4.652344 0.0585938 4.976562 0.0117188 C 4.980469 0.0078125 4.980469 0.0078125 4.984375 0.0078125 L 4.984375 0 C 5.003906 0 5.019531 0.00390625 5.03125 0.00390625 C 5.046875 0.00390625 5.0625 0 5.082031 0 L 5.082031 0.0078125 C 5.410156 0.0546875 5.664062 0.335938 5.664062 0.679688 Z M 5.664062 0.679688 "/>
<path style=" stroke:none;fill-rule:nonzero;fill:rgb(100%,100%,100%);fill-opacity:1;" d="M 7.765625 6.671875 C 7.765625 6.761719 7.722656 6.84375 7.65625 6.898438 C 7.652344 6.90625 7.648438 6.910156 7.644531 6.910156 C 7.589844 6.957031 7.523438 6.988281 7.445312 6.988281 L 2.617188 6.988281 C 2.542969 6.988281 2.476562 6.957031 2.421875 6.910156 C 2.417969 6.910156 2.414062 6.90625 2.410156 6.898438 C 2.34375 6.84375 2.300781 6.761719 2.300781 6.671875 C 2.300781 6.554688 2.367188 6.460938 2.457031 6.40625 C 2.464844 6.402344 2.472656 6.394531 2.480469 6.390625 C 2.523438 6.367188 2.566406 6.351562 2.617188 6.351562 L 7.445312 6.351562 C 7.484375 6.351562 7.527344 6.363281 7.558594 6.378906 C 7.566406 6.382812 7.578125 6.390625 7.585938 6.390625 C 7.59375 6.394531 7.601562 6.402344 7.609375 6.40625 C 7.699219 6.460938 7.765625 6.554688 7.765625 6.671875 Z M 7.765625 6.671875 "/>
<path style=" stroke:none;fill-rule:nonzero;fill:rgb(100%,100%,100%);fill-opacity:1;" d="M 8.101562 8.328125 C 8.101562 8.433594 8.066406 8.527344 8.007812 8.605469 C 7.921875 8.710938 7.796875 8.785156 7.648438 8.785156 L 2.417969 8.785156 C 2.269531 8.785156 2.144531 8.710938 2.058594 8.605469 C 2 8.527344 1.964844 8.433594 1.964844 8.328125 C 1.964844 8.136719 2.085938 7.96875 2.257812 7.90625 C 2.308594 7.886719 2.363281 7.875 2.417969 7.875 L 7.648438 7.875 C 7.703125 7.875 7.757812 7.886719 7.808594 7.90625 C 7.980469 7.96875 8.101562 8.136719 8.101562 8.328125 Z M 8.101562 8.328125 "/>
<path style=" stroke:none;fill-rule:nonzero;fill:rgb(94.509804%,94.509804%,94.509804%);fill-opacity:1;" d="M 8.929688 14.003906 L 8.058594 14.003906 C 8.066406 14.019531 8.074219 14.035156 8.078125 14.050781 C 8.019531 14.019531 7.957031 14.003906 7.894531 14.003906 L 2.171875 14.003906 C 2.109375 14.003906 2.046875 14.019531 1.988281 14.050781 C 1.992188 14.035156 2 14.019531 2.007812 14.003906 L 1.136719 14.003906 C 1.074219 14.003906 1.007812 14.019531 0.953125 14.050781 C 0.980469 13.988281 1.011719 13.898438 1.046875 13.792969 C 1.070312 13.710938 1.097656 13.617188 1.125 13.511719 C 1.183594 13.28125 1.253906 13 1.320312 12.6875 C 1.335938 12.59375 1.359375 12.5 1.375 12.40625 C 1.390625 12.34375 1.402344 12.277344 1.417969 12.210938 C 1.441406 12.089844 1.464844 11.96875 1.488281 11.84375 C 1.566406 11.464844 1.636719 11.074219 1.703125 10.695312 C 1.722656 10.601562 1.738281 10.507812 1.753906 10.417969 C 1.777344 10.28125 1.800781 10.148438 1.824219 10.019531 C 1.839844 9.9375 1.855469 9.855469 1.867188 9.773438 C 1.90625 9.535156 1.941406 9.320312 1.972656 9.136719 C 2.011719 8.890625 2.042969 8.703125 2.058594 8.605469 C 2.144531 8.710938 2.269531 8.785156 2.417969 8.785156 L 7.648438 8.785156 C 7.796875 8.785156 7.921875 8.710938 8.007812 8.605469 C 8.023438 8.703125 8.054688 8.890625 8.09375 9.136719 C 8.105469 9.214844 8.121094 9.300781 8.136719 9.390625 C 8.136719 9.398438 8.140625 9.40625 8.140625 9.410156 C 8.152344 9.484375 8.164062 9.558594 8.175781 9.636719 C 8.179688 9.640625 8.179688 9.648438 8.183594 9.652344 C 8.183594 9.667969 8.183594 9.683594 8.1875 9.695312 C 8.191406 9.722656 8.195312 9.75 8.199219 9.773438 C 8.210938 9.855469 8.226562 9.9375 8.242188 10.019531 C 8.265625 10.152344 8.289062 10.285156 8.3125 10.421875 C 8.320312 10.460938 8.328125 10.503906 8.332031 10.546875 C 8.34375 10.601562 8.351562 10.652344 8.363281 10.710938 C 8.375 10.765625 8.386719 10.816406 8.394531 10.871094 C 8.402344 10.929688 8.414062 10.988281 8.425781 11.046875 C 8.4375 11.101562 8.445312 11.15625 8.457031 11.214844 C 8.460938 11.238281 8.464844 11.261719 8.46875 11.285156 C 8.539062 11.664062 8.613281 12.046875 8.6875 12.402344 C 8.707031 12.5 8.726562 12.59375 8.746094 12.6875 C 8.757812 12.734375 8.769531 12.789062 8.78125 12.835938 C 8.796875 12.910156 8.8125 12.980469 8.828125 13.050781 C 8.84375 13.121094 8.859375 13.1875 8.875 13.25 C 8.882812 13.292969 8.894531 13.332031 8.90625 13.371094 C 8.925781 13.449219 8.945312 13.523438 8.960938 13.59375 C 8.960938 13.597656 8.964844 13.601562 8.964844 13.605469 C 8.976562 13.628906 8.980469 13.652344 8.988281 13.675781 C 9 13.71875 9.007812 13.757812 9.019531 13.792969 C 9.054688 13.902344 9.085938 13.988281 9.113281 14.050781 C 9.058594 14.019531 8.992188 14.003906 8.929688 14.003906 Z M 8.929688 14.003906 "/>
<use xlink:href="#surface5" mask="url(#mask0)"/>
<path style=" stroke:none;fill-rule:nonzero;fill:rgb(94.509804%,94.509804%,94.509804%);fill-opacity:1;" d="M 9.730469 18.375 L 0.335938 18.375 L 0.351562 18.183594 L 0.605469 15.433594 L 0.644531 14.996094 L 0.644531 14.992188 L 0.65625 14.875 C 0.679688 14.910156 0.699219 14.9375 0.722656 14.964844 C 0.796875 15.046875 0.882812 15.09375 0.980469 15.09375 L 1.226562 15.09375 L 1.246094 14.875 C 1.265625 14.910156 1.292969 14.9375 1.316406 14.964844 C 1.390625 15.046875 1.476562 15.09375 1.570312 15.09375 L 1.707031 15.09375 L 1.730469 14.875 C 1.75 14.910156 1.773438 14.9375 1.796875 14.964844 C 1.871094 15.046875 1.957031 15.09375 2.050781 15.09375 L 2.300781 15.09375 L 2.320312 14.875 C 2.34375 14.910156 2.363281 14.9375 2.390625 14.964844 C 2.460938 15.046875 2.550781 15.09375 2.644531 15.09375 L 7.421875 15.09375 C 7.515625 15.09375 7.605469 15.046875 7.675781 14.964844 C 7.703125 14.9375 7.722656 14.910156 7.746094 14.875 L 7.765625 15.09375 L 8.015625 15.09375 C 8.109375 15.09375 8.195312 15.046875 8.269531 14.964844 C 8.292969 14.9375 8.316406 14.910156 8.335938 14.875 L 8.359375 15.09375 L 8.5 15.09375 C 8.589844 15.09375 8.675781 15.046875 8.75 14.964844 C 8.773438 14.9375 8.800781 14.910156 8.820312 14.875 L 8.839844 15.09375 L 9.085938 15.09375 C 9.183594 15.09375 9.269531 15.046875 9.34375 14.964844 C 9.367188 14.9375 9.390625 14.910156 9.410156 14.875 L 9.421875 14.992188 L 9.421875 14.996094 L 9.460938 15.429688 L 9.714844 18.183594 Z M 9.730469 18.375 "/>
<path style=" stroke:none;fill-rule:nonzero;fill:rgb(100%,100%,100%);fill-opacity:1;" d="M 10.066406 19.496094 C 10.066406 19.773438 9.90625 20 9.707031 20 L 0.359375 20 C 0.160156 20 0 19.773438 0 19.496094 L 0.0078125 19.421875 L 0.101562 18.664062 C 0.101562 18.578125 0.117188 18.496094 0.144531 18.425781 C 0.15625 18.398438 0.167969 18.371094 0.183594 18.34375 C 0.199219 18.320312 0.210938 18.296875 0.230469 18.277344 C 0.242188 18.261719 0.257812 18.246094 0.273438 18.234375 C 0.277344 18.226562 0.28125 18.222656 0.289062 18.222656 C 0.308594 18.207031 0.328125 18.191406 0.351562 18.183594 C 0.386719 18.167969 0.421875 18.15625 0.460938 18.15625 L 9.609375 18.15625 C 9.644531 18.15625 9.679688 18.167969 9.714844 18.183594 C 9.734375 18.191406 9.753906 18.203125 9.773438 18.21875 C 9.78125 18.222656 9.785156 18.226562 9.792969 18.234375 C 9.808594 18.246094 9.824219 18.261719 9.835938 18.277344 C 9.855469 18.296875 9.867188 18.320312 9.882812 18.34375 C 9.890625 18.355469 9.894531 18.363281 9.902344 18.375 C 9.910156 18.390625 9.917969 18.40625 9.921875 18.425781 C 9.949219 18.496094 9.964844 18.578125 9.964844 18.664062 Z M 10.066406 19.496094 "/>
<use xlink:href="#surface8" mask="url(#mask1)"/>
<use xlink:href="#surface11" mask="url(#mask2)"/>
<path style=" stroke:none;fill-rule:nonzero;fill:rgb(100%,100%,100%);fill-opacity:1;" d="M 9.601562 14.511719 C 9.601562 14.558594 9.597656 14.605469 9.589844 14.648438 C 9.589844 14.652344 9.585938 14.660156 9.585938 14.664062 C 9.582031 14.675781 9.582031 14.679688 9.578125 14.6875 C 9.578125 14.695312 9.578125 14.703125 9.574219 14.710938 C 9.566406 14.730469 9.5625 14.753906 9.550781 14.773438 C 9.550781 14.773438 9.550781 14.777344 9.550781 14.78125 C 9.542969 14.796875 9.539062 14.8125 9.527344 14.828125 C 9.503906 14.890625 9.46875 14.945312 9.421875 14.996094 C 9.410156 15.011719 9.390625 15.03125 9.375 15.046875 C 9.34375 15.074219 9.304688 15.105469 9.265625 15.132812 C 9.152344 15.210938 9.011719 15.253906 8.863281 15.253906 L 1.203125 15.253906 C 1.054688 15.253906 0.914062 15.210938 0.800781 15.132812 C 0.761719 15.105469 0.722656 15.074219 0.691406 15.046875 C 0.675781 15.03125 0.65625 15.011719 0.644531 14.996094 C 0.585938 14.929688 0.539062 14.855469 0.511719 14.773438 C 0.503906 14.753906 0.5 14.730469 0.492188 14.710938 C 0.472656 14.648438 0.464844 14.582031 0.464844 14.511719 C 0.464844 14.199219 0.667969 13.925781 0.953125 13.824219 C 0.964844 13.816406 0.980469 13.8125 0.996094 13.808594 C 1.011719 13.804688 1.027344 13.800781 1.042969 13.796875 L 1.042969 13.792969 L 1.046875 13.792969 C 1.097656 13.78125 1.148438 13.773438 1.203125 13.773438 L 8.863281 13.773438 C 8.917969 13.773438 8.96875 13.78125 9.019531 13.792969 L 9.023438 13.792969 L 9.023438 13.796875 C 9.039062 13.800781 9.054688 13.804688 9.070312 13.808594 C 9.085938 13.816406 9.101562 13.816406 9.113281 13.824219 C 9.398438 13.925781 9.601562 14.199219 9.601562 14.511719 Z M 9.601562 14.511719 "/>
<use xlink:href="#surface14" mask="url(#mask3)"/>
</g>
</svg>
